<mxfile host="Electron" modified="2023-08-31T15:35:47.179Z" agent="Mozilla/5.0 (Windows NT 10.0; Win64; x64) AppleWebKit/537.36 (KHTML, like Gecko) draw.io/21.6.8 Chrome/114.0.5735.289 Electron/25.5.0 Safari/537.36" etag="HUTD6KANKEyC1Cw8lBlA" version="21.6.8" type="device">
  <diagram id="xNe-ogG1WgllEBJfk30h" name="Page-1">
    <mxGraphModel dx="2058" dy="1188" grid="1" gridSize="10" guides="1" tooltips="1" connect="1" arrows="1" fold="1" page="1" pageScale="1" pageWidth="583" pageHeight="413" math="0" shadow="0">
      <root>
        <mxCell id="0" />
        <mxCell id="1" parent="0" />
        <mxCell id="tPSxnPCLNGIQVh9I8IFJ-1" value="" style="group" parent="1" vertex="1" connectable="0">
          <mxGeometry x="72" y="115" width="440" height="280" as="geometry" />
        </mxCell>
        <mxCell id="bK37rWSU9gxIQJ1aYP31-6" value="" style="group" parent="tPSxnPCLNGIQVh9I8IFJ-1" vertex="1" connectable="0">
          <mxGeometry width="393.705" height="248.03099999999998" as="geometry" />
        </mxCell>
        <mxCell id="bK37rWSU9gxIQJ1aYP31-2" value="" style="rounded=0;whiteSpace=wrap;html=1;" parent="bK37rWSU9gxIQJ1aYP31-6" vertex="1">
          <mxGeometry width="393.7" height="248.03099999999998" as="geometry" />
        </mxCell>
        <mxCell id="bK37rWSU9gxIQJ1aYP31-4" value="" style="ellipse;whiteSpace=wrap;html=1;aspect=fixed;" parent="bK37rWSU9gxIQJ1aYP31-6" vertex="1">
          <mxGeometry x="328.73949999999996" y="66.929" width="11.811" height="11.81" as="geometry" />
        </mxCell>
        <mxCell id="bK37rWSU9gxIQJ1aYP31-5" value="" style="ellipse;whiteSpace=wrap;html=1;aspect=fixed;" parent="bK37rWSU9gxIQJ1aYP31-6" vertex="1">
          <mxGeometry x="53.149499999999996" y="169.291" width="11.811" height="11.81" as="geometry" />
        </mxCell>
        <mxCell id="bK37rWSU9gxIQJ1aYP31-8" value="" style="ellipse;whiteSpace=wrap;html=1;aspect=fixed;opacity=50;" parent="bK37rWSU9gxIQJ1aYP31-6" vertex="1">
          <mxGeometry x="188.976" y="64.9605" width="15.75" height="15.748" as="geometry" />
        </mxCell>
        <mxCell id="bK37rWSU9gxIQJ1aYP31-10" value="&lt;span style=&quot;color: rgb(32, 33, 36); font-family: arial, sans-serif; font-size: 16px; text-align: left; background-color: rgb(255, 255, 255);&quot;&gt;⌀&lt;/span&gt;&amp;nbsp;3mm" style="text;html=1;strokeColor=none;fillColor=none;align=center;verticalAlign=middle;whiteSpace=wrap;rounded=0;opacity=50;" parent="bK37rWSU9gxIQJ1aYP31-6" vertex="1">
          <mxGeometry x="4.530000000000001" y="140" width="50" height="20" as="geometry" />
        </mxCell>
        <mxCell id="bK37rWSU9gxIQJ1aYP31-11" value="&lt;span style=&quot;color: rgb(32, 33, 36); font-family: arial, sans-serif; font-size: 16px; text-align: left; background-color: rgb(255, 255, 255);&quot;&gt;⌀&lt;/span&gt;&amp;nbsp;3mm" style="text;html=1;strokeColor=none;fillColor=none;align=center;verticalAlign=middle;whiteSpace=wrap;rounded=0;opacity=50;" parent="bK37rWSU9gxIQJ1aYP31-6" vertex="1">
          <mxGeometry x="340.54999999999995" y="30" width="50" height="20" as="geometry" />
        </mxCell>
        <mxCell id="bK37rWSU9gxIQJ1aYP31-14" value="&lt;span style=&quot;color: rgb(32, 33, 36); font-family: arial, sans-serif; font-size: 16px; text-align: left; background-color: rgb(255, 255, 255);&quot;&gt;⌀&lt;/span&gt;&amp;nbsp;3mm" style="text;html=1;strokeColor=none;fillColor=none;align=center;verticalAlign=middle;whiteSpace=wrap;rounded=0;opacity=50;" parent="bK37rWSU9gxIQJ1aYP31-6" vertex="1">
          <mxGeometry x="171.85" y="82.83" width="50" height="20" as="geometry" />
        </mxCell>
        <mxCell id="bK37rWSU9gxIQJ1aYP31-16" value="&lt;span style=&quot;color: rgb(32, 33, 36); font-family: arial, sans-serif; font-size: 16px; text-align: left; background-color: rgb(255, 255, 255);&quot;&gt;⌀&lt;/span&gt;&amp;nbsp;4mm sur 2mm de profondeur" style="text;html=1;strokeColor=none;fillColor=none;align=center;verticalAlign=middle;whiteSpace=wrap;rounded=0;opacity=50;" parent="bK37rWSU9gxIQJ1aYP31-6" vertex="1">
          <mxGeometry x="146.85" y="100" width="100" height="30" as="geometry" />
        </mxCell>
        <mxCell id="bK37rWSU9gxIQJ1aYP31-20" value="" style="endArrow=none;dashed=1;html=1;rounded=0;fontSize=10;" parent="bK37rWSU9gxIQJ1aYP31-6" target="bK37rWSU9gxIQJ1aYP31-2" edge="1">
          <mxGeometry width="50" height="50" relative="1" as="geometry">
            <mxPoint y="100" as="sourcePoint" />
            <mxPoint x="220" y="80" as="targetPoint" />
          </mxGeometry>
        </mxCell>
        <mxCell id="bK37rWSU9gxIQJ1aYP31-23" value="15mm" style="shape=dimension;whiteSpace=wrap;html=1;align=center;points=[];verticalAlign=bottom;spacingBottom=-5;labelBackgroundColor=#ffffff;fontSize=10;opacity=50;" parent="bK37rWSU9gxIQJ1aYP31-6" vertex="1">
          <mxGeometry y="181.1" width="59.055" height="40" as="geometry" />
        </mxCell>
        <mxCell id="bK37rWSU9gxIQJ1aYP31-24" value="15mm" style="shape=dimension;whiteSpace=wrap;html=1;align=center;points=[];verticalAlign=bottom;spacingBottom=-5;labelBackgroundColor=#ffffff;fontSize=10;opacity=50;" parent="bK37rWSU9gxIQJ1aYP31-6" vertex="1">
          <mxGeometry x="334.64" y="72.83" width="59.055" height="40" as="geometry" />
        </mxCell>
        <mxCell id="bK37rWSU9gxIQJ1aYP31-25" value="50mm" style="shape=dimension;whiteSpace=wrap;html=1;align=center;points=[];verticalAlign=bottom;spacingBottom=-5;labelBackgroundColor=#ffffff;fontSize=10;opacity=50;direction=west;" parent="bK37rWSU9gxIQJ1aYP31-6" vertex="1">
          <mxGeometry y="42.83" width="196.85" height="30" as="geometry" />
        </mxCell>
        <mxCell id="bK37rWSU9gxIQJ1aYP31-26" value="18.5mm" style="shape=dimension;direction=north;whiteSpace=wrap;html=1;align=right;points=[];verticalAlign=middle;labelBackgroundColor=#ffffff;fontSize=10;opacity=50;" parent="bK37rWSU9gxIQJ1aYP31-6" vertex="1">
          <mxGeometry x="59.05" y="175.2" width="50.95" height="72.83" as="geometry" />
        </mxCell>
        <mxCell id="bK37rWSU9gxIQJ1aYP31-27" value="18.5mm" style="shape=dimension;direction=south;whiteSpace=wrap;html=1;align=right;points=[];verticalAlign=middle;labelBackgroundColor=#ffffff;fontSize=10;opacity=50;" parent="bK37rWSU9gxIQJ1aYP31-6" vertex="1">
          <mxGeometry x="283.69" width="50.95" height="72.83" as="geometry" />
        </mxCell>
        <mxCell id="bK37rWSU9gxIQJ1aYP31-28" value="18.5mm" style="shape=dimension;direction=north;whiteSpace=wrap;html=1;align=right;points=[];verticalAlign=middle;labelBackgroundColor=#ffffff;fontSize=10;opacity=50;" parent="bK37rWSU9gxIQJ1aYP31-6" vertex="1">
          <mxGeometry x="196.85" width="43.15" height="72.83" as="geometry" />
        </mxCell>
        <mxCell id="bK37rWSU9gxIQJ1aYP31-29" value="" style="endArrow=classic;html=1;rounded=0;fontSize=10;exitX=0.209;exitY=1.011;exitDx=0;exitDy=0;exitPerimeter=0;entryX=1;entryY=0;entryDx=0;entryDy=0;" parent="bK37rWSU9gxIQJ1aYP31-6" source="bK37rWSU9gxIQJ1aYP31-11" target="bK37rWSU9gxIQJ1aYP31-4" edge="1">
          <mxGeometry width="50" height="50" relative="1" as="geometry">
            <mxPoint x="150" y="170" as="sourcePoint" />
            <mxPoint x="200" y="120" as="targetPoint" />
          </mxGeometry>
        </mxCell>
        <mxCell id="bK37rWSU9gxIQJ1aYP31-30" value="" style="endArrow=classic;html=1;rounded=0;fontSize=10;exitX=0.75;exitY=1;exitDx=0;exitDy=0;entryX=0;entryY=0;entryDx=0;entryDy=0;" parent="bK37rWSU9gxIQJ1aYP31-6" source="bK37rWSU9gxIQJ1aYP31-10" target="bK37rWSU9gxIQJ1aYP31-5" edge="1">
          <mxGeometry width="50" height="50" relative="1" as="geometry">
            <mxPoint x="361" y="60.22000000000003" as="sourcePoint" />
            <mxPoint x="348.8206423083708" y="78.65835769162908" as="targetPoint" />
          </mxGeometry>
        </mxCell>
        <mxCell id="bK37rWSU9gxIQJ1aYP31-3" value="" style="ellipse;whiteSpace=wrap;html=1;aspect=fixed;" parent="bK37rWSU9gxIQJ1aYP31-6" vertex="1">
          <mxGeometry x="190.9445" y="66.929" width="11.811" height="11.81" as="geometry" />
        </mxCell>
        <mxCell id="bK37rWSU9gxIQJ1aYP31-34" value="100mm" style="shape=dimension;whiteSpace=wrap;html=1;align=center;points=[];verticalAlign=bottom;spacingBottom=-5;labelBackgroundColor=#ffffff;fontSize=10;opacity=50;" parent="tPSxnPCLNGIQVh9I8IFJ-1" vertex="1">
          <mxGeometry y="250" width="393.7" height="30" as="geometry" />
        </mxCell>
        <mxCell id="bK37rWSU9gxIQJ1aYP31-35" value="63mm" style="shape=dimension;direction=north;whiteSpace=wrap;html=1;align=right;points=[];verticalAlign=middle;labelBackgroundColor=#ffffff;fontSize=10;opacity=50;" parent="tPSxnPCLNGIQVh9I8IFJ-1" vertex="1">
          <mxGeometry x="400" width="40" height="248.03099999999998" as="geometry" />
        </mxCell>
        <mxCell id="tPSxnPCLNGIQVh9I8IFJ-2" value="&lt;h1&gt;&lt;font style=&quot;font-size: 20px;&quot;&gt;Gabarit de perçage du dissipateur&lt;/font&gt;&lt;/h1&gt;&lt;p&gt;&lt;span style=&quot;background-color: initial;&quot;&gt;Une impression à l&#39;échelle permet de marquer directement les endroits à percer (vérifier les cotes).&lt;/span&gt;&lt;br&gt;&lt;/p&gt;" style="text;html=1;strokeColor=none;fillColor=none;spacing=5;spacingTop=-20;whiteSpace=wrap;overflow=hidden;rounded=0;" parent="1" vertex="1">
          <mxGeometry x="72" y="18" width="390" height="87" as="geometry" />
        </mxCell>
      </root>
    </mxGraphModel>
  </diagram>
</mxfile>
